<?xml version="1.0" standalone="no"?>
<!DOCTYPE svg PUBLIC "-//W3C//DTD SVG 20010904//EN"
 "http://www.w3.org/TR/2001/REC-SVG-20010904/DTD/svg10.dtd">
<svg version="1.0" xmlns="http://www.w3.org/2000/svg"
 width="530.000000pt" height="471.000000pt" viewBox="0 0 530.000000 471.000000"
 preserveAspectRatio="xMidYMid meet">

<g transform="translate(0.000000,471.000000) scale(0.100000,-0.100000)"
fill="#000000" stroke="none">
<path d="M2445 4275 c-305 -48 -589 -197 -785 -412 -121 -132 -137 -182 -81
-245 25 -28 36 -33 75 -33 44 0 47 2 144 105 113 120 176 171 288 235 75 43
198 95 256 109 l27 6 -27 -57 c-23 -50 -27 -70 -27 -153 0 -78 5 -103 23 -141
37 -75 87 -125 160 -161 60 -30 76 -33 152 -33 76 0 92 3 152 33 73 36 123 86
160 161 18 38 23 63 23 141 0 83 -4 103 -27 153 l-27 57 27 -6 c55 -13 159
-56 232 -95 113 -61 197 -128 308 -244 97 -102 101 -105 143 -105 47 1 65 10
92 50 25 36 21 81 -11 126 -153 210 -432 398 -702 474 -174 48 -403 63 -575
35z"/>
<path d="M2583 1434 c-60 -22 -126 -84 -154 -146 -19 -44 -23 -70 -23 -148 0
-116 23 -178 91 -241 65 -59 103 -73 209 -73 81 -1 96 2 149 29 110 56 161
159 153 309 -8 137 -65 225 -175 266 -65 24 -187 26 -250 4z m179 -144 c55
-75 38 -295 -27 -330 -60 -32 -106 31 -113 155 -7 134 26 209 90 203 19 -2 38
-13 50 -28z"/>
<path d="M4465 1427 c-72 -41 -107 -126 -87 -215 19 -82 77 -130 204 -167 31
-9 62 -22 68 -30 46 -55 -71 -83 -123 -29 -18 19 -32 24 -79 24 l-58 0 0 -90
0 -90 56 0 c40 0 60 5 68 16 10 13 16 13 56 -5 139 -63 280 29 280 182 0 110
-65 176 -209 212 -73 18 -91 29 -91 55 0 22 19 30 71 30 31 0 43 -6 61 -30 19
-27 27 -30 75 -30 29 0 53 3 54 8 0 4 2 44 2 90 l2 82 -51 0 c-34 0 -56 -5
-64 -15 -11 -13 -16 -13 -45 5 -46 29 -137 27 -190 -3z"/>
<path d="M470 1375 l0 -65 30 0 30 0 0 -175 0 -175 -30 0 -30 0 0 -65 0 -65
245 0 245 0 0 135 0 135 -49 0 -49 0 -12 -52 c-20 -85 -25 -89 -78 -86 l-47 3
-3 173 -2 172 30 0 30 0 0 65 0 65 -155 0 -155 0 0 -65z"/>
<path d="M1000 1375 l0 -65 29 0 29 0 4 -157 c5 -175 14 -213 71 -271 83 -86
280 -82 360 7 49 54 57 92 57 269 l0 152 30 0 30 0 0 65 0 65 -125 0 -125 0 0
-65 0 -65 30 0 30 0 0 -155 c0 -142 -2 -157 -20 -175 -25 -25 -71 -26 -101 -1
-23 18 -24 25 -27 175 l-3 156 30 0 31 0 0 65 0 65 -165 0 -165 0 0 -65z"/>
<path d="M1850 1376 l0 -65 38 -3 37 -3 0 -170 0 -170 -37 -3 -38 -3 0 -65 0
-64 170 0 170 0 0 65 0 65 -35 0 -35 0 0 65 0 65 40 0 40 0 0 50 0 50 -40 0
-40 0 0 61 0 60 53 -3 52 -3 9 -52 9 -53 53 0 54 0 0 120 0 120 -250 0 -250 0
0 -64z"/>
<path d="M3120 1375 l0 -65 30 0 30 0 0 -175 0 -175 -30 0 -30 0 0 -65 0 -65
245 0 245 0 0 135 0 135 -49 0 c-48 0 -49 0 -56 -37 -4 -21 -13 -53 -20 -70
-13 -30 -18 -33 -59 -33 l-46 0 0 175 0 175 30 0 30 0 0 65 0 65 -160 0 -160
0 0 -65z"/>
<path d="M3680 1376 l0 -65 33 -3 32 -3 0 -170 0 -170 -32 -3 -33 -3 0 -65 0
-64 160 0 160 0 0 65 0 65 -30 0 c-30 0 -30 0 -30 60 l0 60 38 -5 c48 -6 62
-27 62 -94 0 -75 24 -122 70 -138 19 -7 72 -12 118 -12 l82 -1 0 65 c0 57 -2
65 -19 65 -44 0 -51 10 -51 72 0 72 -25 104 -90 114 -22 4 -39 11 -38 16 2 5
28 40 58 78 44 55 61 69 83 70 27 0 27 1 27 65 l0 65 -115 0 -115 0 0 -64 c0
-60 -3 -68 -46 -127 -26 -35 -50 -68 -55 -73 -5 -6 -9 20 -9 62 0 70 1 72 25
72 24 0 25 2 25 65 l0 65 -155 0 -155 0 0 -64z"/>
</g>
</svg>
