<svg xmlns="http://www.w3.org/2000/svg" version="1.1" xmlns:xlink="http://www.w3.org/1999/xlink" xmlns:svgjs="http://svgjs.dev/svgjs" viewBox="0 0 10.047297772219055 8.931845106062744"><g transform="matrix(1,0,0,1,0.7891573089610899,6.169957242650263)"><g><path d=" M 0.0945 1.188 L 0.0945 0.9255 L 0.2115 0.9255 L 0.2115 0.28049999999999997 L 0.0945 0.28049999999999997 L 0.0945 0.022499999999999964 L 0.7035 0.022499999999999964 L 0.7035 0.28049999999999997 L 0.5865 0.28049999999999997 L 0.5865 0.9255 L 0.774 0.9255 L 0.8445 0.6689999999999999 L 1.0305 0.6689999999999999 L 1.0305 1.188 L 0.0945 1.188 M 1.329733154296875 1.0725 Q 1.2149831542968752 0.9359999999999999 1.2149831542968752 0.6719999999999999 L 1.2149831542968752 0.28049999999999997 L 1.0964831542968752 0.28049999999999997 L 1.0964831542968752 0.022499999999999964 L 1.732483154296875 0.022499999999999964 L 1.732483154296875 0.28049999999999997 L 1.6244831542968752 0.28049999999999997 L 1.6244831542968752 0.7709999999999999 Q 1.6244831542968752 0.843 1.6597331542968752 0.8887499999999999 Q 1.6949831542968752 0.9344999999999999 1.7699831542968751 0.9344999999999999 Q 1.8329831542968753 0.9344999999999999 1.8697331542968751 0.897 Q 1.906483154296875 0.8594999999999999 1.906483154296875 0.7949999999999999 L 1.906483154296875 0.28049999999999997 L 1.786483154296875 0.28049999999999997 L 1.786483154296875 0.022499999999999964 L 2.2649831542968752 0.022499999999999964 L 2.2649831542968752 0.28049999999999997 L 2.152483154296875 0.28049999999999997 L 2.152483154296875 0.7845 Q 2.152483154296875 0.9944999999999999 2.029483154296875 1.10175 Q 1.906483154296875 1.2089999999999999 1.7054831542968751 1.2089999999999999 Q 1.4444831542968752 1.2089999999999999 1.329733154296875 1.0725 M 2.7149567871093754 1.188 L 2.7149567871093754 0.9299999999999999 L 2.8559567871093754 0.9299999999999999 L 2.8559567871093754 0.28049999999999997 L 2.7149567871093754 0.28049999999999997 L 2.7149567871093754 0.022499999999999964 L 3.6764567871093754 0.022499999999999964 L 3.6764567871093754 0.49349999999999994 L 3.4649567871093754 0.49349999999999994 L 3.4184567871093754 0.28049999999999997 L 3.2309567871093754 0.28049999999999997 L 3.2309567871093754 0.5009999999999999 L 3.3944567871093754 0.5009999999999999 L 3.3944567871093754 0.6884999999999999 L 3.2309567871093754 0.6884999999999999 L 3.2309567871093754 0.9299999999999999 L 3.3704567871093754 0.9299999999999999 L 3.3704567871093754 1.188 L 2.7149567871093754 1.188 M 4.02672509765625 1.131 Q 3.8939750976562504 1.053 3.8249750976562504 0.91575 Q 3.7559750976562505 0.7785 3.7559750976562505 0.603 Q 3.7559750976562505 0.4214999999999999 3.8249750976562504 0.2849999999999999 Q 3.8939750976562504 0.14849999999999985 4.02597509765625 0.07424999999999993 Q 4.157975097656251 0 4.3424750976562505 0 Q 4.52697509765625 0 4.658975097656251 0.07424999999999993 Q 4.790975097656251 0.14849999999999985 4.859975097656251 0.2849999999999999 Q 4.9289750976562505 0.4214999999999999 4.9289750976562505 0.603 Q 4.9289750976562505 0.7785 4.859975097656251 0.91575 Q 4.790975097656251 1.053 4.658225097656251 1.131 Q 4.52547509765625 1.2089999999999999 4.3424750976562505 1.2089999999999999 Q 4.159475097656251 1.2089999999999999 4.02672509765625 1.131 M 4.463975097656251 0.8534999999999999 Q 4.5059750976562505 0.7575 4.5059750976562505 0.597 Q 4.5059750976562505 0.44099999999999995 4.465475097656251 0.35024999999999995 Q 4.424975097656251 0.25949999999999995 4.3424750976562505 0.25949999999999995 Q 4.25997509765625 0.25949999999999995 4.21947509765625 0.35024999999999995 Q 4.1789750976562505 0.44099999999999995 4.1789750976562505 0.597 Q 4.1789750976562505 0.7575 4.22097509765625 0.8534999999999999 Q 4.26297509765625 0.9494999999999999 4.3424750976562505 0.9494999999999999 Q 4.421975097656251 0.9494999999999999 4.463975097656251 0.8534999999999999 M 5.122502929687501 1.188 L 5.122502929687501 0.9255 L 5.239502929687501 0.9255 L 5.239502929687501 0.28049999999999997 L 5.122502929687501 0.28049999999999997 L 5.122502929687501 0.022499999999999964 L 5.731502929687501 0.022499999999999964 L 5.731502929687501 0.28049999999999997 L 5.614502929687501 0.28049999999999997 L 5.614502929687501 0.9255 L 5.802002929687501 0.9255 L 5.872502929687501 0.6689999999999999 L 6.058502929687501 0.6689999999999999 L 6.058502929687501 1.188 L 5.122502929687501 1.188 M 6.188986083984377 0.9299999999999999 L 6.305986083984377 0.9299999999999999 L 6.305986083984377 0.28049999999999997 L 6.188986083984377 0.28049999999999997 L 6.188986083984377 0.022499999999999964 L 6.773986083984377 0.022499999999999964 L 6.773986083984377 0.28049999999999997 L 6.680986083984377 0.28049999999999997 L 6.680986083984377 0.5459999999999999 L 6.874486083984377 0.28049999999999997 L 6.874486083984377 0.022499999999999964 L 7.330486083984376 0.022499999999999964 L 7.330486083984376 0.28049999999999997 L 7.229986083984377 0.28049999999999997 L 6.997486083984377 0.5624999999999999 L 6.997486083984377 0.573 Q 7.115986083984376 0.573 7.183486083984377 0.6134999999999999 Q 7.250986083984377 0.6539999999999999 7.250986083984377 0.7545 L 7.250986083984377 0.873 Q 7.250986083984377 0.8955 7.2637360839843765 0.91275 Q 7.276486083984377 0.9299999999999999 7.298986083984377 0.9299999999999999 L 7.382986083984377 0.9299999999999999 L 7.382986083984377 1.188 L 7.114486083984376 1.188 Q 6.868486083984377 1.188 6.868486083984377 0.963 L 6.868486083984377 0.8354999999999999 Q 6.868486083984377 0.7979999999999999 6.844486083984377 0.762 Q 6.820486083984377 0.726 6.787486083984376 0.726 L 6.680986083984377 0.726 L 6.680986083984377 0.9299999999999999 L 6.797986083984377 0.9299999999999999 L 6.797986083984377 1.188 L 6.188986083984377 1.188 L 6.188986083984377 0.9299999999999999 M 7.899715576171876 1.18875 Q 7.846465576171877 1.1684999999999999 7.784965576171876 1.1204999999999998 L 7.759465576171876 1.188 L 7.522465576171876 1.188 L 7.522465576171876 0.831 L 7.757965576171876 0.831 Q 7.780465576171876 0.8925 7.827715576171876 0.9179999999999999 Q 7.874965576171876 0.9435 7.943965576171877 0.9435 Q 7.985965576171877 0.9435 8.015965576171876 0.92625 Q 8.045965576171877 0.9089999999999999 8.045965576171877 0.8805 Q 8.045965576171877 0.8444999999999999 8.015215576171876 0.8265 Q 7.984465576171877 0.8085 7.928965576171876 0.7934999999999999 Q 7.787965576171876 0.7545 7.697215576171876 0.7094999999999999 Q 7.6064655761718765 0.6645 7.550965576171876 0.5804999999999999 Q 7.495465576171877 0.49649999999999994 7.495465576171877 0.35849999999999993 Q 7.495465576171877 0.2519999999999999 7.541215576171877 0.17099999999999982 Q 7.586965576171877 0.08999999999999986 7.672465576171876 0.04499999999999993 Q 7.757965576171876 0 7.873465576171876 0 Q 8.014465576171876 0 8.096965576171876 0.08999999999999986 L 8.134465576171877 0.020999999999999908 L 8.344465576171876 0.020999999999999908 L 8.344465576171876 0.37049999999999994 L 8.119465576171876 0.37049999999999994 Q 8.087965576171877 0.3044999999999999 8.049715576171875 0.2789999999999999 Q 8.011465576171876 0.25349999999999995 7.945465576171876 0.25349999999999995 Q 7.894465576171877 0.25349999999999995 7.866715576171877 0.27149999999999996 Q 7.838965576171876 0.2895 7.838965576171876 0.32099999999999995 Q 7.838965576171876 0.3554999999999999 7.878715576171876 0.37424999999999997 Q 7.918465576171876 0.3929999999999999 7.991965576171876 0.4095 Q 8.122465576171876 0.4394999999999999 8.213215576171876 0.4837499999999999 Q 8.303965576171876 0.5279999999999999 8.358715576171877 0.6097499999999999 Q 8.413465576171877 0.6915 8.413465576171877 0.8205 Q 8.413465576171877 0.9299999999999999 8.367715576171877 1.0185 Q 8.321965576171877 1.107 8.237215576171877 1.158 Q 8.152465576171876 1.2089999999999999 8.042965576171877 1.2089999999999999 Q 7.952965576171876 1.2089999999999999 7.899715576171876 1.18875" fill="#0e35cb" fill-rule="nonzero"></path></g><g><path d=" M 0.2052124720206952 1.9440414423106087 Q 0.2052124720206952 1.9352687385981382 0.20912462367625645 1.9287484858388695 Q 0.2130367753318177 1.9222282330796008 0.22204657914462542 1.9222282330796008 L 0.2798990036268644 1.9222282330796008 L 0.2798990036268644 1.5992978964205453 L 0.22204657914462542 1.5992978964205453 Q 0.2130367753318177 1.5992978964205453 0.20912462367625645 1.5927776436612766 Q 0.2052124720206952 1.586257390902008 0.2052124720206952 1.5774846871895372 Q 0.2052124720206952 1.5696603838784147 0.20971737392709908 1.56361433131982 Q 0.21422227583350292 1.5575682787612255 0.2225207793452995 1.5575682787612255 L 0.39252155128696076 1.5575682787612255 Q 0.4008200547987574 1.5575682787612255 0.4054435067553297 1.56361433131982 Q 0.41006695871190213 1.5696603838784147 0.41006695871190213 1.5774846871895372 Q 0.41006695871190213 1.586257390902008 0.4060362570061723 1.5927776436612766 Q 0.4020055553004426 1.5992978964205453 0.3929957514876349 1.5992978964205453 L 0.3353804271057329 1.5992978964205453 L 0.3353804271057329 1.9222282330796008 L 0.3929957514876349 1.9222282330796008 Q 0.4020055553004426 1.9222282330796008 0.4060362570061723 1.9287484858388695 Q 0.41006695871190213 1.9352687385981382 0.41006695871190213 1.9440414423106087 Q 0.41006695871190213 1.9518657456217312 0.4054435067553297 1.957911798180326 Q 0.4008200547987574 1.9639578507389206 0.39252155128696076 1.9639578507389206 L 0.2225207793452995 1.9639578507389206 Q 0.21422227583350292 1.9639578507389206 0.20971737392709908 1.957911798180326 Q 0.2052124720206952 1.9518657456217312 0.2052124720206952 1.9440414423106087 L 0.2052124720206952 1.9440414423106087 M 0.43757057035099933 1.5774846871895372 Q 0.43757057035099933 1.5696603838784147 0.4421940223075717 1.56361433131982 Q 0.4468174742641441 1.5575682787612255 0.45511597777594065 1.5575682787612255 L 0.5648933242319925 1.5575682787612255 Q 0.5705837266400816 1.5575682787612255 0.5736660279444632 1.5594650795639218 Q 0.5767483292488448 1.561361880366618 0.5788822301518781 1.5658667822730221 L 0.7872932183481407 1.8629532079953395 L 0.7872932183481407 1.5992978964205453 L 0.7446152002874726 1.5992978964205453 Q 0.7356053964746649 1.5992978964205453 0.7315746947689351 1.5927776436612766 Q 0.7275439930632054 1.586257390902008 0.7275439930632054 1.5774846871895372 Q 0.7275439930632054 1.5696603838784147 0.7321674450197777 1.56361433131982 Q 0.7367908969763501 1.5575682787612255 0.7450894004881468 1.5575682787612255 L 0.8830816588843069 1.5575682787612255 Q 0.8913801623961035 1.5575682787612255 0.8958850643025074 1.56361433131982 Q 0.9003899662089112 1.5696603838784147 0.9003899662089112 1.5774846871895372 Q 0.9003899662089112 1.586257390902008 0.89647781455335 1.5927776436612766 Q 0.8925656628977887 1.5992978964205453 0.883555859084981 1.5992978964205453 L 0.8363729391179091 1.5992978964205453 L 0.8363729391179091 1.9513915454210573 Q 0.8363729391179091 1.960401349233865 0.8300897864589774 1.9665659518426282 Q 0.8238066338000456 1.9727305544513913 0.815033930087575 1.9727305544513913 Q 0.8074467268767895 1.9727305544513913 0.802111974619206 1.9690555028961672 Q 0.7967772223616225 1.965380451340943 0.7932207208565669 1.9601642491335278 L 0.551852818713455 1.618740104648183 L 0.551852818713455 1.9222282330796008 L 0.593582436372775 1.9222282330796008 Q 0.6025922401855827 1.9222282330796008 0.6066229418913124 1.9287484858388695 Q 0.6106536435970422 1.9352687385981382 0.6106536435970422 1.9440414423106087 Q 0.6106536435970422 1.9518657456217312 0.6060301916404698 1.957911798180326 Q 0.6014067396838975 1.9639578507389206 0.5931082361721008 1.9639578507389206 L 0.45511597777594065 1.9639578507389206 Q 0.4468174742641441 1.9639578507389206 0.4421940223075717 1.957911798180326 Q 0.43757057035099933 1.9518657456217312 0.43757057035099933 1.9440414423106087 Q 0.43757057035099933 1.9352687385981382 0.4416012720567291 1.9287484858388695 Q 0.44563197376245883 1.9222282330796008 0.4546417775752666 1.9222282330796008 L 0.5018246975423385 1.9222282330796008 L 0.5018246975423385 1.5992978964205453 L 0.4546417775752666 1.5992978964205453 Q 0.44563197376245883 1.5992978964205453 0.4416012720567291 1.5927776436612766 Q 0.43757057035099933 1.586257390902008 0.43757057035099933 1.5774846871895372 L 0.43757057035099933 1.5774846871895372 M 1.1412836681513487 1.9639578507389206 Q 1.1495821716631454 1.9639578507389206 1.1542056236197178 1.957911798180326 Q 1.1588290755762902 1.9518657456217312 1.1588290755762902 1.9440414423106087 Q 1.1588290755762902 1.9352687385981382 1.1547983738705603 1.9287484858388695 Q 1.1507676721648306 1.9222282330796008 1.1417578683520229 1.9222282330796008 L 1.0694423377492241 1.9222282330796008 L 1.0694423377492241 1.7780713720746772 L 1.1500563718638195 1.7780713720746772 L 1.1621484769810089 1.8221719907373677 Q 1.1640452777837051 1.828810793546805 1.1689058298406145 1.8335527955535458 Q 1.173766381897524 1.8382947975602868 1.1811164850079723 1.8382947975602868 Q 1.189177888419432 1.8382947975602868 1.1934456902254986 1.8329600453027033 Q 1.1977134920315655 1.8276252930451198 1.1977134920315655 1.8193267895333232 L 1.1943940906268469 1.7600517644490619 L 1.1977134920315655 1.702673540167497 Q 1.1977134920315655 1.6943750366557004 1.1934456902254986 1.689040284398117 Q 1.189177888419432 1.6837055321405334 1.1811164850079723 1.6837055321405334 Q 1.173766381897524 1.6837055321405334 1.1689058298406145 1.6884475341472742 Q 1.1640452777837051 1.6931895361540152 1.1621484769810089 1.6998283389634525 L 1.1500563718638195 1.7439289576261428 L 1.0694423377492241 1.7439289576261428 L 1.0694423377492241 1.5992978964205453 L 1.2769049255441387 1.5992978964205453 L 1.2977697343737986 1.6599955221068288 Q 1.30085203567818 1.6673456252172774 1.3070166382869433 1.6726803774748609 Q 1.3131812408957064 1.6780151297324444 1.3219539446081772 1.6780151297324444 Q 1.3295411478189625 1.6780151297324444 1.3345202499260405 1.6731545776755348 Q 1.3394993520331184 1.6682940256186254 1.3394993520331184 1.6604697223075031 Q 1.3394993520331184 1.6585729215048066 1.339143701882613 1.6562019205014362 Q 1.3387880517321074 1.6538309194980658 1.338076751431096 1.6512228183943582 L 1.3200571438054807 1.576062086587515 Q 1.3172119426014361 1.5677635830757184 1.3131812408957064 1.562665930918472 Q 1.3091505391899767 1.5575682787612255 1.3006149355778431 1.5575682787612255 L 0.9568197900891278 1.5575682787612255 Q 0.9485212865773313 1.5575682787612255 0.9438978346207588 1.56361433131982 Q 0.9392743826641865 1.5696603838784147 0.9392743826641865 1.5774846871895372 Q 0.9392743826641865 1.586257390902008 0.9433050843699162 1.5927776436612766 Q 0.9473357860756461 1.5992978964205453 0.9563455898884538 1.5992978964205453 L 1.0141980143706928 1.5992978964205453 L 1.0141980143706928 1.9222282330796008 L 0.936903381660816 1.9222282330796008 Q 0.9278935778480083 1.9222282330796008 0.9238628761422786 1.9287484858388695 Q 0.9198321744365487 1.9352687385981382 0.9198321744365487 1.9440414423106087 Q 0.9198321744365487 1.9518657456217312 0.9244556263931212 1.957911798180326 Q 0.9290790783496935 1.9639578507389206 0.9373775818614901 1.9639578507389206 L 1.1412836681513487 1.9639578507389206 M 1.558579844744548 1.5774846871895372 Q 1.558579844744548 1.586257390902008 1.5545491430388183 1.5927776436612766 Q 1.5505184413330886 1.5992978964205453 1.5415086375202807 1.5992978964205453 L 1.4886353151451197 1.5992978964205453 L 1.4886353151451197 1.9222282330796008 L 1.6555537857823994 1.9222282330796008 Q 1.6757072943110483 1.9222282330796008 1.6902889504817766 1.9165378306715115 Q 1.7048706066525048 1.9108474282634225 1.706530307354864 1.892116520336796 L 1.7134062102646384 1.8254913921420863 Q 1.7143546106659866 1.8176670888309638 1.719452262823233 1.8141105873259082 Q 1.7245499149804795 1.8105540858208524 1.732848418492276 1.8105540858208524 Q 1.7416211222047466 1.8105540858208524 1.7481413749640156 1.8152960878275934 Q 1.7546616277232843 1.8200380898343342 1.7546616277232843 1.829522093847816 L 1.7439921232081173 1.9478350439160015 Q 1.743280822907106 1.9544738467254388 1.7397243214020504 1.9592158487321798 Q 1.7361678198969948 1.9639578507389206 1.7295290170875575 1.9639578507389206 L 1.3622609616654748 1.9639578507389206 Q 1.3539624581536782 1.9639578507389206 1.3493390061971058 1.957911798180326 Q 1.3447155542405334 1.9518657456217312 1.3447155542405334 1.9440414423106087 Q 1.3447155542405334 1.9352687385981382 1.348746255946263 1.9287484858388695 Q 1.352776957651993 1.9222282330796008 1.3617867614648007 1.9222282330796008 L 1.4331538916662512 1.9222282330796008 L 1.4331538916662512 1.5992978964205453 L 1.3764869676856974 1.5992978964205453 Q 1.3674771638728898 1.5992978964205453 1.36344646216716 1.5927776436612766 Q 1.35941576046143 1.586257390902008 1.35941576046143 1.5774846871895372 Q 1.35941576046143 1.5696603838784147 1.3640392124180025 1.56361433131982 Q 1.368662664374575 1.5575682787612255 1.3769611678863716 1.5575682787612255 L 1.5410344373196065 1.5575682787612255 Q 1.5493329408314032 1.5575682787612255 1.5539563927879756 1.56361433131982 Q 1.558579844744548 1.5696603838784147 1.558579844744548 1.5774846871895372 L 1.558579844744548 1.5774846871895372 M 1.9981634307694294 1.9698853532473468 Q 1.927033400668316 1.9698853532473468 1.8817472815039404 1.9304081865412288 Q 1.8364611623395648 1.8909310198351108 1.8364611623395648 1.8207493901353455 L 1.8364611623395648 1.5992978964205453 L 1.800659047188671 1.5992978964205453 Q 1.7916492433758633 1.5992978964205453 1.7876185416701336 1.5927776436612766 Q 1.7835878399644036 1.586257390902008 1.7835878399644036 1.5774846871895372 Q 1.7835878399644036 1.5696603838784147 1.788211291920976 1.56361433131982 Q 1.7928347438775485 1.5575682787612255 1.801133247389345 1.5575682787612255 L 1.9395997059861794 1.5575682787612255 Q 1.947898209497976 1.5575682787612255 1.9524031114043798 1.56361433131982 Q 1.9569080133107837 1.5696603838784147 1.9569080133107837 1.5774846871895372 Q 1.9569080133107837 1.586257390902008 1.9529958616552223 1.5927776436612766 Q 1.9490837099996612 1.5992978964205453 1.9400739061868535 1.5992978964205453 L 1.8919425858184333 1.5992978964205453 L 1.8919425858184333 1.8207493901353455 Q 1.8919425858184333 1.871251711507136 1.9195647475076991 1.8993480733970758 Q 1.9471869091969647 1.9274444352870157 1.9981634307694294 1.9274444352870157 Q 2.0446350504354904 1.9274444352870157 2.072494312225093 1.897569822644548 Q 2.100353574014696 1.8676952100020803 2.100353574014696 1.8212235903360194 L 2.100353574014696 1.5992978964205453 L 2.0550674548503203 1.5992978964205453 Q 2.0460576510375126 1.5992978964205453 2.042026949331783 1.5927776436612766 Q 2.037996247626053 1.586257390902008 2.037996247626053 1.5774846871895372 Q 2.037996247626053 1.5696603838784147 2.0426196995826253 1.56361433131982 Q 2.047243151539198 1.5575682787612255 2.055541655050994 1.5575682787612255 L 2.1866580105373803 1.5575682787612255 Q 2.194956514049177 1.5575682787612255 2.199579966005749 1.56361433131982 Q 2.2042034179623213 1.5696603838784147 2.2042034179623213 1.5774846871895372 Q 2.2042034179623213 1.586257390902008 2.200172716256592 1.5927776436612766 Q 2.196142014550862 1.5992978964205453 2.187132210738054 1.5992978964205453 L 2.1458767932794087 1.5992978964205453 L 2.1458767932794087 1.8212235903360194 Q 2.1458767932794087 1.887137418229718 2.1048584759210995 1.9285113857385323 Q 2.063840158562791 1.9698853532473468 1.9981634307694294 1.9698853532473468 L 1.9981634307694294 1.9698853532473468 M 2.491094539370146 1.8100798856201783 Q 2.491094539370146 1.818378389131975 2.486826737564079 1.8237131413895584 Q 2.4825589357580125 1.829047893647142 2.4744975323465526 1.829047893647142 Q 2.467147429236104 1.829047893647142 2.462286877179195 1.8243058916404011 Q 2.4574263251222854 1.8195638896336601 2.455529524319589 1.8129250868242228 L 2.4434374192023998 1.7688244681615326 L 2.3642459856898266 1.7688244681615326 L 2.3642459856898266 1.9222282330796008 L 2.5736053742874376 1.9222282330796008 L 2.6011089859265346 1.8439851999683758 Q 2.6044283873312533 1.8366350968579275 2.6103558898396795 1.831300344600344 Q 2.6162833923481057 1.8259655923427605 2.6255302962612506 1.8259655923427605 Q 2.633354599572373 1.8259655923427605 2.6380966015791136 1.8307075943495013 Q 2.6428386035858544 1.8354495963562423 2.6428386035858544 1.8435109997677017 Q 2.6428386035858544 1.8458820007710721 2.642482953435349 1.8482530017744425 Q 2.6421273032848434 1.8506240027778131 2.6414160029838323 1.8527579036808466 L 2.6264786966625984 1.945464042912631 Q 2.624107695659228 1.9539996465247647 2.619839893853161 1.9589787486318426 Q 2.6155720920470946 1.9639578507389206 2.607036488434961 1.9639578507389206 L 2.2419023339159114 1.9639578507389206 Q 2.233603830404115 1.9639578507389206 2.2289803784475426 1.957911798180326 Q 2.2243569264909704 1.9518657456217312 2.2243569264909704 1.9440414423106087 Q 2.2243569264909704 1.9352687385981382 2.2283876281967 1.9287484858388695 Q 2.23241832990243 1.9222282330796008 2.2414281337152375 1.9222282330796008 L 2.3090016623112954 1.9222282330796008 L 2.3090016623112954 1.5992978964205453 L 2.265612343949616 1.5992978964205453 Q 2.256602540136808 1.5992978964205453 2.252690388481247 1.5927776436612766 Q 2.248778236825686 1.586257390902008 2.248778236825686 1.5774846871895372 Q 2.248778236825686 1.5696603838784147 2.2532831387320895 1.56361433131982 Q 2.2577880406384936 1.5575682787612255 2.26608654415029 1.5575682787612255 L 2.597315384321142 1.5575682787612255 Q 2.605850987933276 1.5575682787612255 2.6098816896390056 1.562665930918472 Q 2.6139123913447353 1.5677635830757184 2.6167575925487796 1.576062086587515 L 2.639519202181136 1.6512228183943582 Q 2.6402305024821473 1.6538309194980658 2.6405861526326526 1.6562019205014362 Q 2.6409418027831584 1.6585729215048066 2.6409418027831584 1.6604697223075031 Q 2.6409418027831584 1.6682940256186254 2.636081250726249 1.6731545776755348 Q 2.6312206986693396 1.6780151297324444 2.623633495458554 1.6780151297324444 Q 2.614860791746083 1.6780151297324444 2.6085776390871516 1.6726803774748609 Q 2.60229448642822 1.6673456252172774 2.5992121851238386 1.6599955221068288 L 2.5736053742874376 1.5992978964205453 L 2.3642459856898266 1.5992978964205453 L 2.3642459856898266 1.734682053712998 L 2.4434374192023998 1.734682053712998 L 2.455529524319589 1.6905814350503077 Q 2.4574263251222854 1.6839426322408704 2.462286877179195 1.6792006302341296 Q 2.467147429236104 1.6744586282273888 2.4744975323465526 1.6744586282273888 Q 2.4825589357580125 1.6744586282273888 2.486826737564079 1.679793380484972 Q 2.491094539370146 1.6851281327425558 2.491094539370146 1.6934266362543522 L 2.48753803786509 1.7508048605359172 L 2.491094539370146 1.8100798856201783 M 2.6727132162283227 1.5774846871895372 Q 2.6727132162283227 1.5696603838784147 2.677336668184895 1.56361433131982 Q 2.681960120141467 1.5575682787612255 2.6902586236532637 1.5575682787612255 L 2.800035970109316 1.5575682787612255 Q 2.805726372517405 1.5575682787612255 2.8088086738217863 1.5594650795639218 Q 2.811890975126168 1.561361880366618 2.8140248760292015 1.5658667822730221 L 3.022435864225464 1.8629532079953395 L 3.022435864225464 1.5992978964205453 L 2.9797578461647958 1.5992978964205453 Q 2.970748042351988 1.5992978964205453 2.9667173406462584 1.5927776436612766 Q 2.9626866389405286 1.586257390902008 2.9626866389405286 1.5774846871895372 Q 2.9626866389405286 1.5696603838784147 2.967310090897101 1.56361433131982 Q 2.9719335428536735 1.5575682787612255 2.9802320463654697 1.5575682787612255 L 3.1182243047616303 1.5575682787612255 Q 3.1265228082734264 1.5575682787612255 3.1310277101798305 1.56361433131982 Q 3.1355326120862346 1.5696603838784147 3.1355326120862346 1.5774846871895372 Q 3.1355326120862346 1.586257390902008 3.131620460430673 1.5927776436612766 Q 3.127708308775112 1.5992978964205453 3.118698504962304 1.5992978964205453 L 3.0715155849952325 1.5992978964205453 L 3.0715155849952325 1.9513915454210573 Q 3.0715155849952325 1.960401349233865 3.0652324323363005 1.9665659518426282 Q 3.058949279677369 1.9727305544513913 3.050176575964898 1.9727305544513913 Q 3.042589372754113 1.9727305544513913 3.037254620496529 1.9690555028961672 Q 3.031919868238946 1.965380451340943 3.02836336673389 1.9601642491335278 L 2.7869954645907784 1.618740104648183 L 2.7869954645907784 1.9222282330796008 L 2.828725082250098 1.9222282330796008 Q 2.837734886062906 1.9222282330796008 2.8417655877686356 1.9287484858388695 Q 2.8457962894743654 1.9352687385981382 2.8457962894743654 1.9440414423106087 Q 2.8457962894743654 1.9518657456217312 2.841172837517793 1.957911798180326 Q 2.8365493855612205 1.9639578507389206 2.828250882049424 1.9639578507389206 L 2.6902586236532637 1.9639578507389206 Q 2.681960120141467 1.9639578507389206 2.677336668184895 1.957911798180326 Q 2.6727132162283227 1.9518657456217312 2.6727132162283227 1.9440414423106087 Q 2.6727132162283227 1.9352687385981382 2.6767439179340524 1.9287484858388695 Q 2.680774619639782 1.9222282330796008 2.68978442345259 1.9222282330796008 L 2.7369673434196615 1.9222282330796008 L 2.7369673434196615 1.5992978964205453 L 2.68978442345259 1.5992978964205453 Q 2.680774619639782 1.5992978964205453 2.6767439179340524 1.5927776436612766 Q 2.6727132162283227 1.586257390902008 2.6727132162283227 1.5774846871895372 L 2.6727132162283227 1.5774846871895372 M 3.5480867866726924 1.8285736934464678 Q 3.5480867866726924 1.8854777175273587 3.5004296665049464 1.9276815353873527 Q 3.4527725463372003 1.9698853532473468 3.3733440127242904 1.9698853532473468 Q 3.2839572748972246 1.9698853532473468 3.2243265996624575 1.910965978313591 Q 3.164695924427691 1.8520466033798353 3.164695924427691 1.7531758615392876 Q 3.164695924427691 1.6628407233108735 3.225512100164143 1.6072407497818364 Q 3.286328275900595 1.5516407762527993 3.377848914630694 1.5516407762527993 Q 3.416496230985633 1.5516407762527993 3.444236942725067 1.5645627317211683 Q 3.471977654464501 1.5774846871895372 3.493316663494835 1.5992978964205453 L 3.493316663494835 1.5746394859854926 Q 3.493316663494835 1.565629682172685 3.499836916254104 1.5615989804669552 Q 3.5063571690133726 1.5575682787612255 3.5151298727258435 1.5575682787612255 Q 3.522954176036966 1.5575682787612255 3.5290002285955606 1.5621917307177977 Q 3.535046281154155 1.5668151826743701 3.535046281154155 1.5751136861861668 L 3.535046281154155 1.6637891237122215 Q 3.535046281154155 1.6720876272240182 3.5290002285955606 1.6767110791805906 Q 3.522954176036966 1.681334531137163 3.5151298727258435 1.681334531137163 Q 3.5070684693143837 1.681334531137163 3.503274867708991 1.6750513784782313 Q 3.499481266103598 1.6687682258192995 3.4952134642975317 1.6628407233108735 Q 3.4779051569729273 1.634388711270428 3.4500458951833246 1.6154207032434644 Q 3.4221866333937214 1.5964526952165008 3.377848914630694 1.5964526952165008 Q 3.307667284930929 1.5964526952165008 3.2673602678736313 1.6416202643307078 Q 3.2270532508163337 1.6867878334449151 3.2270532508163337 1.7557839626429952 Q 3.2270532508163337 1.8335527955535458 3.266411867472283 1.8784832645674159 Q 3.3057704841282325 1.923413733581286 3.377848914630694 1.923413733581286 Q 3.427877035801811 1.923413733581286 3.4589371489459637 1.8962657720926943 Q 3.4899972620901165 1.8691178106041026 3.498769965802587 1.824068791540064 Q 3.5004296665049464 1.8155331879279304 3.507661219565226 1.811383936172032 Q 3.5148927726255064 1.8072346844161338 3.522954176036966 1.8072346844161338 Q 3.5322010799501107 1.8072346844161338 3.5401439333114015 1.8126879867238859 Q 3.5480867866726924 1.818141289031638 3.5480867866726924 1.8285736934464678 L 3.5480867866726924 1.8285736934464678 M 3.8513378150037734 1.8100798856201783 Q 3.8513378150037734 1.818378389131975 3.8470700131977065 1.8237131413895584 Q 3.84280221139164 1.829047893647142 3.83474080798018 1.829047893647142 Q 3.8273907048697318 1.829047893647142 3.8225301528128224 1.8243058916404011 Q 3.817669600755913 1.8195638896336601 3.8157727999532165 1.8129250868242228 L 3.8036806948360273 1.7688244681615326 L 3.724489261323454 1.7688244681615326 L 3.724489261323454 1.9222282330796008 L 3.933848649921065 1.9222282330796008 L 3.961352261560162 1.8439851999683758 Q 3.964671662964881 1.8366350968579275 3.970599165473307 1.831300344600344 Q 3.9765266679817333 1.8259655923427605 3.985773571894878 1.8259655923427605 Q 3.9935978752060004 1.8259655923427605 3.998339877212741 1.8307075943495013 Q 4.003081879219482 1.8354495963562423 4.003081879219482 1.8435109997677017 Q 4.003081879219482 1.8458820007710721 4.002726229068976 1.8482530017744425 Q 4.002370578918471 1.8506240027778131 4.00165927861746 1.8527579036808466 L 3.986721972296226 1.945464042912631 Q 3.9843509712928555 1.9539996465247647 3.9800831694867886 1.9589787486318426 Q 3.975815367680722 1.9639578507389206 3.9672797640685884 1.9639578507389206 L 3.602145609549539 1.9639578507389206 Q 3.5938471060377424 1.9639578507389206 3.58922365408117 1.957911798180326 Q 3.584600202124598 1.9518657456217312 3.584600202124598 1.9440414423106087 Q 3.584600202124598 1.9352687385981382 3.5886309038303277 1.9287484858388695 Q 3.5926616055360574 1.9222282330796008 3.601671409348865 1.9222282330796008 L 3.669244937944923 1.9222282330796008 L 3.669244937944923 1.5992978964205453 L 3.6258556195832434 1.5992978964205453 Q 3.6168458157704357 1.5992978964205453 3.6129336641148746 1.5927776436612766 Q 3.6090215124593135 1.586257390902008 3.6090215124593135 1.5774846871895372 Q 3.6090215124593135 1.5696603838784147 3.613526414365717 1.56361433131982 Q 3.618031316272121 1.5575682787612255 3.6263298197839178 1.5575682787612255 L 3.9575586599547696 1.5575682787612255 Q 3.9660942635669034 1.5575682787612255 3.970124965272633 1.562665930918472 Q 3.974155666978363 1.5677635830757184 3.977000868182407 1.576062086587515 L 3.9997624778147634 1.6512228183943582 Q 4.000473778115775 1.6538309194980658 4.000829428266281 1.6562019205014362 Q 4.0011850784167855 1.6585729215048066 4.0011850784167855 1.6604697223075031 Q 4.0011850784167855 1.6682940256186254 3.9963245263598766 1.6731545776755348 Q 3.991463974302967 1.6780151297324444 3.9838767710921816 1.6780151297324444 Q 3.9751040673797107 1.6780151297324444 3.968820914720779 1.6726803774748609 Q 3.9625377620618476 1.6673456252172774 3.959455460757466 1.6599955221068288 L 3.933848649921065 1.5992978964205453 L 3.724489261323454 1.5992978964205453 L 3.724489261323454 1.734682053712998 L 3.8036806948360273 1.734682053712998 L 3.8157727999532165 1.6905814350503077 Q 3.817669600755913 1.6839426322408704 3.8225301528128224 1.6792006302341296 Q 3.8273907048697318 1.6744586282273888 3.83474080798018 1.6744586282273888 Q 3.84280221139164 1.6744586282273888 3.8470700131977065 1.679793380484972 Q 3.8513378150037734 1.6851281327425558 3.8513378150037734 1.6934266362543522 L 3.8477813134987175 1.7508048605359172 L 3.8513378150037734 1.8100798856201783 M 4.137280536010249 1.9440414423106087 Q 4.137280536010249 1.9352687385981382 4.141311237715979 1.9287484858388695 Q 4.145341939421709 1.9222282330796008 4.154351743234517 1.9222282330796008 L 4.187308657181366 1.9222282330796008 L 4.344268923604489 1.5677635830757184 Q 4.347825425109545 1.5594650795639218 4.354938428119657 1.5527077267043161 Q 4.362051431129768 1.5459503738447102 4.373432235945946 1.5459503738447102 Q 4.385287240962798 1.5459503738447102 4.39157039362173 1.552944826804653 Q 4.397853546280661 1.559939279764596 4.401410047785717 1.5687119834770666 L 4.543907208088282 1.9222282330796008 L 4.586111025948275 1.9222282330796008 Q 4.595120829761083 1.9222282330796008 4.599032981416644 1.9287484858388695 Q 4.602945133072206 1.9352687385981382 4.602945133072206 1.9440414423106087 Q 4.602945133072206 1.9518657456217312 4.598440231165801 1.957911798180326 Q 4.593935329259398 1.9639578507389206 4.585636825747601 1.9639578507389206 L 4.432707261030207 1.9639578507389206 Q 4.42440875751841 1.9639578507389206 4.419785305561838 1.957911798180326 Q 4.415161853605266 1.9518657456217312 4.415161853605266 1.9440414423106087 Q 4.415161853605266 1.9352687385981382 4.419192555310996 1.9287484858388695 Q 4.423223257016725 1.9222282330796008 4.4322330608295335 1.9222282330796008 L 4.484157982803346 1.9222282330796008 L 4.449067167953463 1.829522093847816 L 4.277169595209106 1.829522093847816 L 4.23994487945619 1.9222282330796008 L 4.28404549811888 1.9222282330796008 Q 4.2930553019316875 1.9222282330796008 4.297086003637418 1.9287484858388695 Q 4.301116705343147 1.9352687385981382 4.301116705343147 1.9440414423106087 Q 4.301116705343147 1.9518657456217312 4.296493253386575 1.957911798180326 Q 4.2918698014300025 1.9639578507389206 4.283571297918206 1.9639578507389206 L 4.15482594343519 1.9639578507389206 Q 4.146527439923394 1.9639578507389206 4.141903987966821 1.957911798180326 Q 4.137280536010249 1.9518657456217312 4.137280536010249 1.9440414423106087 L 4.137280536010249 1.9440414423106087 M 4.2918698014300025 1.7930086783959112 L 4.435552462234252 1.7930086783959112 L 4.366082132835498 1.6085448003336902 L 4.2918698014300025 1.7930086783959112 M 4.6138517376877095 1.5774846871895372 Q 4.6138517376877095 1.5696603838784147 4.618475189644282 1.56361433131982 Q 4.623098641600854 1.5575682787612255 4.6313971451126505 1.5575682787612255 L 4.741174491568702 1.5575682787612255 Q 4.746864893976792 1.5575682787612255 4.749947195281173 1.5594650795639218 Q 4.753029496585555 1.561361880366618 4.755163397488588 1.5658667822730221 L 4.963574385684851 1.8629532079953395 L 4.963574385684851 1.5992978964205453 L 4.920896367624183 1.5992978964205453 Q 4.911886563811375 1.5992978964205453 4.907855862105645 1.5927776436612766 Q 4.903825160399915 1.586257390902008 4.903825160399915 1.5774846871895372 Q 4.903825160399915 1.5696603838784147 4.908448612356488 1.56361433131982 Q 4.91307206431306 1.5575682787612255 4.921370567824857 1.5575682787612255 L 5.059362826221017 1.5575682787612255 Q 5.067661329732814 1.5575682787612255 5.072166231639217 1.56361433131982 Q 5.076671133545621 1.5696603838784147 5.076671133545621 1.5774846871895372 Q 5.076671133545621 1.586257390902008 5.07275898189006 1.5927776436612766 Q 5.068846830234499 1.5992978964205453 5.059837026421691 1.5992978964205453 L 5.012654106454619 1.5992978964205453 L 5.012654106454619 1.9513915454210573 Q 5.012654106454619 1.960401349233865 5.006370953795687 1.9665659518426282 Q 5.000087801136756 1.9727305544513913 4.991315097424285 1.9727305544513913 Q 4.9837278942135 1.9727305544513913 4.978393141955916 1.9690555028961672 Q 4.973058389698332 1.965380451340943 4.969501888193276 1.9601642491335278 L 4.728133986050165 1.618740104648183 L 4.728133986050165 1.9222282330796008 L 4.769863603709485 1.9222282330796008 Q 4.778873407522292 1.9222282330796008 4.7829041092280224 1.9287484858388695 Q 4.786934810933753 1.9352687385981382 4.786934810933753 1.9440414423106087 Q 4.786934810933753 1.9518657456217312 4.7823113589771795 1.957911798180326 Q 4.777687907020607 1.9639578507389206 4.769389403508811 1.9639578507389206 L 4.6313971451126505 1.9639578507389206 Q 4.623098641600854 1.9639578507389206 4.618475189644282 1.957911798180326 Q 4.6138517376877095 1.9518657456217312 4.6138517376877095 1.9440414423106087 Q 4.6138517376877095 1.9352687385981382 4.617882439393439 1.9287484858388695 Q 4.621913141099169 1.9222282330796008 4.630922944911976 1.9222282330796008 L 4.678105864879049 1.9222282330796008 L 4.678105864879049 1.5992978964205453 L 4.630922944911976 1.5992978964205453 Q 4.621913141099169 1.5992978964205453 4.617882439393439 1.5927776436612766 Q 4.6138517376877095 1.586257390902008 4.6138517376877095 1.5774846871895372 L 4.6138517376877095 1.5774846871895372 M 5.468123399202083 1.7586291638470397 Q 5.468123399202083 1.682282931538511 5.422481629887201 1.6407904139795282 Q 5.37683986057232 1.5992978964205453 5.300019428063118 1.5992978964205453 L 5.232208799366723 1.5992978964205453 L 5.232208799366723 1.9222282330796008 Q 5.24050730287852 1.9227024332802747 5.248568706289979 1.9229395333806119 Q 5.2566301097014385 1.9231766334809488 5.264691513112898 1.9231766334809488 Q 5.354552451140639 1.9231766334809488 5.4113379251713605 1.8869003181293809 Q 5.468123399202083 1.8506240027778131 5.468123399202083 1.7586291638470397 L 5.468123399202083 1.7586291638470397 M 5.525501623483648 1.7586291638470397 Q 5.525501623483648 1.8586854061892726 5.459587795589949 1.9113216284640966 Q 5.393673967696251 1.9639578507389206 5.293380625253681 1.9639578507389206 L 5.1136587491982 1.9639578507389206 Q 5.105360245686404 1.9639578507389206 5.100736793729832 1.957911798180326 Q 5.096113341773259 1.9518657456217312 5.096113341773259 1.9440414423106087 Q 5.096113341773259 1.9352687385981382 5.100144043478989 1.9287484858388695 Q 5.104174745184719 1.9222282330796008 5.113184548997526 1.9222282330796008 L 5.176727375887855 1.9222282330796008 L 5.176727375887855 1.5992978964205453 L 5.128596055519434 1.5992978964205453 Q 5.119586251706627 1.5992978964205453 5.1156741000510655 1.5927776436612766 Q 5.111761948395504 1.586257390902008 5.111761948395504 1.5774846871895372 Q 5.111761948395504 1.5696603838784147 5.116385400352076 1.56361433131982 Q 5.121008852308649 1.5575682787612255 5.129307355820446 1.5575682787612255 L 5.293380625253681 1.5575682787612255 Q 5.3958078685992845 1.5575682787612255 5.460654746041466 1.6074778498821733 Q 5.525501623483648 1.6573874210031214 5.525501623483648 1.7586291638470397 L 5.525501623483648 1.7586291638470397 M 5.676534387398345 1.9440414423106087 Q 5.676534387398345 1.9352687385981382 5.680446539053906 1.9287484858388695 Q 5.684358690709468 1.9222282330796008 5.693368494522275 1.9222282330796008 L 5.751220919004514 1.9222282330796008 L 5.751220919004514 1.5992978964205453 L 5.693368494522275 1.5992978964205453 Q 5.684358690709468 1.5992978964205453 5.680446539053906 1.5927776436612766 Q 5.676534387398345 1.586257390902008 5.676534387398345 1.5774846871895372 Q 5.676534387398345 1.5696603838784147 5.681039289304749 1.56361433131982 Q 5.685544191211153 1.5575682787612255 5.6938426947229495 1.5575682787612255 L 5.86384346666461 1.5575682787612255 Q 5.872141970176407 1.5575682787612255 5.87676542213298 1.56361433131982 Q 5.881388874089552 1.5696603838784147 5.881388874089552 1.5774846871895372 Q 5.881388874089552 1.586257390902008 5.877358172383822 1.5927776436612766 Q 5.873327470678093 1.5992978964205453 5.8643176668652846 1.5992978964205453 L 5.806702342483383 1.5992978964205453 L 5.806702342483383 1.9222282330796008 L 5.8643176668652846 1.9222282330796008 Q 5.873327470678093 1.9222282330796008 5.877358172383822 1.9287484858388695 Q 5.881388874089552 1.9352687385981382 5.881388874089552 1.9440414423106087 Q 5.881388874089552 1.9518657456217312 5.87676542213298 1.957911798180326 Q 5.872141970176407 1.9639578507389206 5.86384346666461 1.9639578507389206 L 5.6938426947229495 1.9639578507389206 Q 5.685544191211153 1.9639578507389206 5.681039289304749 1.957911798180326 Q 5.676534387398345 1.9518657456217312 5.676534387398345 1.9440414423106087 L 5.676534387398345 1.9440414423106087 M 5.908892485728649 1.5774846871895372 Q 5.908892485728649 1.5696603838784147 5.913515937685221 1.56361433131982 Q 5.9181393896417935 1.5575682787612255 5.92643789315359 1.5575682787612255 L 6.036215239609642 1.5575682787612255 Q 6.041905642017731 1.5575682787612255 6.044987943322113 1.5594650795639218 Q 6.048070244626494 1.561361880366618 6.050204145529528 1.5658667822730221 L 6.25861513372579 1.8629532079953395 L 6.25861513372579 1.5992978964205453 L 6.215937115665122 1.5992978964205453 Q 6.206927311852315 1.5992978964205453 6.202896610146585 1.5927776436612766 Q 6.198865908440855 1.586257390902008 6.198865908440855 1.5774846871895372 Q 6.198865908440855 1.5696603838784147 6.203489360397428 1.56361433131982 Q 6.208112812354 1.5575682787612255 6.2164113158657965 1.5575682787612255 L 6.354403574261957 1.5575682787612255 Q 6.362702077773753 1.5575682787612255 6.367206979680157 1.56361433131982 Q 6.3717118815865605 1.5696603838784147 6.3717118815865605 1.5774846871895372 Q 6.3717118815865605 1.586257390902008 6.367799729931 1.5927776436612766 Q 6.363887578275438 1.5992978964205453 6.354877774462631 1.5992978964205453 L 6.3076948544955584 1.5992978964205453 L 6.3076948544955584 1.9513915454210573 Q 6.3076948544955584 1.960401349233865 6.301411701836627 1.9665659518426282 Q 6.295128549177695 1.9727305544513913 6.286355845465224 1.9727305544513913 Q 6.278768642254439 1.9727305544513913 6.273433889996856 1.9690555028961672 Q 6.268099137739272 1.965380451340943 6.264542636234216 1.9601642491335278 L 6.023174734091104 1.618740104648183 L 6.023174734091104 1.9222282330796008 L 6.064904351750425 1.9222282330796008 Q 6.073914155563232 1.9222282330796008 6.077944857268962 1.9287484858388695 Q 6.081975558974692 1.9352687385981382 6.081975558974692 1.9440414423106087 Q 6.081975558974692 1.9518657456217312 6.077352107018119 1.957911798180326 Q 6.072728655061547 1.9639578507389206 6.06443015154975 1.9639578507389206 L 5.92643789315359 1.9639578507389206 Q 5.9181393896417935 1.9639578507389206 5.913515937685221 1.957911798180326 Q 5.908892485728649 1.9518657456217312 5.908892485728649 1.9440414423106087 Q 5.908892485728649 1.9352687385981382 5.912923187434378 1.9287484858388695 Q 5.916953889140109 1.9222282330796008 5.925963692952916 1.9222282330796008 L 5.973146612919988 1.9222282330796008 L 5.973146612919988 1.5992978964205453 L 5.925963692952916 1.5992978964205453 Q 5.916953889140109 1.5992978964205453 5.912923187434378 1.5927776436612766 Q 5.908892485728649 1.586257390902008 5.908892485728649 1.5774846871895372 L 5.908892485728649 1.5774846871895372 M 6.5734840669733865 1.5891025921060524 Q 6.516580042892496 1.5891025921060524 6.498086235066206 1.610560151186555 Q 6.479592427239917 1.6320177102670577 6.479592427239917 1.6588100216051438 Q 6.479592427239917 1.6818087313378371 6.495596684012667 1.6959161873078912 Q 6.511600940785418 1.7100236432779454 6.5433723542305815 1.717847946589068 L 6.611420083027314 1.734682053712998 Q 6.658128802793711 1.7462999586295134 6.6875292152355055 1.7727366198170937 Q 6.716929627677299 1.7991732810046743 6.716929627677299 1.855366004784554 Q 6.716929627677299 1.9167749307718487 6.668324107108204 1.9435672421099348 Q 6.61971858653911 1.9703595534480207 6.557598360250805 1.9703595534480207 Q 6.532465749615078 1.9703595534480207 6.506147638477666 1.9637207506385836 Q 6.479829527340254 1.9570819478291464 6.457067917707898 1.9414333412069014 Q 6.456119517306549 1.9494947446183608 6.45208881560082 1.9596900489328537 Q 6.448058113895089 1.9698853532473468 6.43999671048363 1.9698853532473468 Q 6.431461106871496 1.9698853532473468 6.426244904664081 1.966328851742291 Q 6.421028702456667 1.9627723502372354 6.420080302055318 1.954710946825776 L 6.406565596336106 1.8371092970586016 Q 6.406565596336106 1.8276252930451198 6.412255998744196 1.8230018410885473 Q 6.417946401152285 1.818378389131975 6.429327205968463 1.818378389131975 Q 6.436440208978574 1.818378389131975 6.4418935112863265 1.8225276408878732 Q 6.447346813594079 1.8266768926437715 6.448295213995427 1.833789895653883 L 6.45208881560082 1.8667468096007322 Q 6.4544598166041895 1.8887971189320774 6.484808629447332 1.9085949773102207 Q 6.515157442290473 1.928392835688364 6.551670857742378 1.928392835688364 Q 6.592214974900013 1.928392835688364 6.630269541004108 1.9139297295678042 Q 6.668324107108204 1.8994666234472444 6.668324107108204 1.855128904684217 Q 6.668324107108204 1.823120391138716 6.649000448930735 1.8105540858208524 Q 6.629676790753266 1.7979877805029891 6.603121579515517 1.7904005772922036 L 6.525352746604966 1.7683502679608585 Q 6.482911828644635 1.7588662639473767 6.4550525668550325 1.7345635036628295 Q 6.42719330506543 1.7102607433782824 6.42719330506543 1.6626036232105363 Q 6.42719330506543 1.6106787012367234 6.467855972273233 1.5811597387447613 Q 6.508518639481036 1.5516407762527993 6.565659763662264 1.5516407762527993 Q 6.590318174097317 1.5516407762527993 6.616280635084223 1.5578053788615625 Q 6.642243096071129 1.5639699814703256 6.659314303295397 1.5781959874905485 Q 6.659314303295397 1.5682377832763925 6.6655974559543285 1.5600578298147645 Q 6.67188060861326 1.5518778763531365 6.681601712727079 1.5518778763531365 Q 6.6887147157371905 1.5518778763531365 6.694168018044943 1.5561456781592031 Q 6.699621320352694 1.56041347996527 6.700569720754043 1.5675264829753814 L 6.702229421456402 1.661655222809188 Q 6.702229421456402 1.6718505271236812 6.696064818847638 1.6764739790802534 Q 6.689900216238875 1.6810974310368259 6.680416212225394 1.6810974310368259 Q 6.672117708713597 1.6810974310368259 6.6667829564560135 1.6775409295317703 Q 6.66144820419843 1.6739844280267144 6.660499803797082 1.6661601247155922 L 6.659551403395734 1.6386565130764947 Q 6.656469102091352 1.6118642017384088 6.63015099095394 1.6004833969222307 Q 6.603832879816528 1.5891025921060524 6.5734840669733865 1.5891025921060524 L 6.5734840669733865 1.5891025921060524 M 7.0834863827983705 1.6739844280267144 Q 7.0834863827983705 1.618265904447509 7.0346437621289395 1.6087819004340271 Q 6.985801141459508 1.5992978964205453 6.936010120388729 1.5992978964205453 L 6.886930399618961 1.5992978964205453 L 6.886930399618961 1.7531758615392876 L 6.950473226509288 1.7531758615392876 Q 7.001449748081753 1.7531758615392876 7.042468065440062 1.741913606773278 Q 7.0834863827983705 1.7306513520072684 7.0834863827983705 1.6739844280267144 L 7.0834863827983705 1.6739844280267144 M 7.139442006477913 1.6775409295317703 Q 7.139442006477913 1.7595775642483877 7.0764919298384275 1.7758189211214754 Q 7.013541853198943 1.792060277994563 6.937906921191425 1.792060277994563 L 6.886930399618961 1.792060277994563 L 6.886930399618961 1.9222282330796008 L 6.959245930221759 1.9222282330796008 Q 6.9682557340345666 1.9222282330796008 6.972286435740297 1.9287484858388695 Q 6.976317137446026 1.9352687385981382 6.976317137446026 1.9440414423106087 Q 6.976317137446026 1.9518657456217312 6.971693685489454 1.957911798180326 Q 6.967070233532882 1.9639578507389206 6.958771730021085 1.9639578507389206 L 6.769328749851786 1.9639578507389206 Q 6.761030246339989 1.9639578507389206 6.756406794383417 1.957911798180326 Q 6.751783342426845 1.9518657456217312 6.751783342426845 1.9440414423106087 Q 6.751783342426845 1.9352687385981382 6.755814044132574 1.9287484858388695 Q 6.759844745838304 1.9222282330796008 6.768854549651111 1.9222282330796008 L 6.831448976140091 1.9222282330796008 L 6.831448976140091 1.5992978964205453 L 6.773833651758189 1.5992978964205453 Q 6.764823847945382 1.5992978964205453 6.760793146239652 1.5927776436612766 Q 6.756762444533923 1.586257390902008 6.756762444533923 1.5774846871895372 Q 6.756762444533923 1.5696603838784147 6.761385896490495 1.56361433131982 Q 6.766009348447067 1.5575682787612255 6.774307851958864 1.5575682787612255 L 6.929134217478954 1.5575682787612255 Q 7.0083256509915275 1.5575682787612255 7.07388382873472 1.5751136861861668 Q 7.139442006477913 1.592659093611108 7.139442006477913 1.6775409295317703 L 7.139442006477913 1.6775409295317703 M 7.175718321829481 1.9440414423106087 Q 7.175718321829481 1.9352687385981382 7.179630473485043 1.9287484858388695 Q 7.183542625140604 1.9222282330796008 7.1925524289534115 1.9222282330796008 L 7.250404853435651 1.9222282330796008 L 7.250404853435651 1.5992978964205453 L 7.1925524289534115 1.5992978964205453 Q 7.183542625140604 1.5992978964205453 7.179630473485043 1.5927776436612766 Q 7.175718321829481 1.586257390902008 7.175718321829481 1.5774846871895372 Q 7.175718321829481 1.5696603838784147 7.180223223735886 1.56361433131982 Q 7.184728125642289 1.5575682787612255 7.193026629154086 1.5575682787612255 L 7.363027401095747 1.5575682787612255 Q 7.371325904607543 1.5575682787612255 7.375949356564116 1.56361433131982 Q 7.3805728085206885 1.5696603838784147 7.3805728085206885 1.5774846871895372 Q 7.3805728085206885 1.586257390902008 7.376542106814958 1.5927776436612766 Q 7.372511405109229 1.5992978964205453 7.363501601296421 1.5992978964205453 L 7.305886276914519 1.5992978964205453 L 7.305886276914519 1.9222282330796008 L 7.363501601296421 1.9222282330796008 Q 7.372511405109229 1.9222282330796008 7.376542106814958 1.9287484858388695 Q 7.3805728085206885 1.9352687385981382 7.3805728085206885 1.9440414423106087 Q 7.3805728085206885 1.9518657456217312 7.375949356564116 1.957911798180326 Q 7.371325904607543 1.9639578507389206 7.363027401095747 1.9639578507389206 L 7.193026629154086 1.9639578507389206 Q 7.184728125642289 1.9639578507389206 7.180223223735886 1.957911798180326 Q 7.175718321829481 1.9518657456217312 7.175718321829481 1.9440414423106087 L 7.175718321829481 1.9440414423106087 M 7.5771287917000985 1.740609556221424 Q 7.631187614576945 1.740609556221424 7.6724430320355905 1.7312441022581109 Q 7.713698449494236 1.7218786482947976 7.713698449494236 1.6701908264213219 Q 7.713698449494236 1.6175546041464979 7.667345379878344 1.6084262502835216 Q 7.6209923102624515 1.5992978964205453 7.5683560879876275 1.5992978964205453 L 7.533502373238083 1.5992978964205453 L 7.533502373238083 1.740609556221424 L 7.5771287917000985 1.740609556221424 M 7.771313773876138 1.6678198254179515 Q 7.771313773876138 1.7161882458867086 7.739779460531311 1.7380014551177168 Q 7.708245147186484 1.759814664348725 7.662247727721097 1.7678760677601844 Q 7.684772237253117 1.7778342719743403 7.701606344377047 1.7939570787972594 Q 7.718440451500977 1.8100798856201783 7.729109956016144 1.8359237965569162 L 7.764674971066701 1.9219911329792636 L 7.799528685816247 1.9219911329792636 Q 7.813754691836469 1.9219911329792636 7.819445094244559 1.9269702350863416 Q 7.825135496652647 1.9319493371934195 7.825135496652647 1.9440414423106087 Q 7.825135496652647 1.9573190479294833 7.818022493642536 1.9607569993843705 Q 7.810909490632425 1.9641949508392575 7.799765785916584 1.9641949508392575 L 7.696864342370306 1.9639578507389206 Q 7.688565838858509 1.9639578507389206 7.683942386901937 1.957911798180326 Q 7.679318934945365 1.9518657456217312 7.679318934945365 1.9440414423106087 Q 7.679318934945365 1.9352687385981382 7.683349636651094 1.928629935788701 Q 7.687380338356824 1.9219911329792636 7.696390142169632 1.9219911329792636 L 7.708008047086147 1.9219911329792636 L 7.681452835848399 1.8548918045838798 Q 7.670783331333231 1.828099493245794 7.6467176711490215 1.805456433663606 Q 7.622652010964811 1.7828133740814183 7.587324096014592 1.7828133740814183 L 7.533502373238083 1.7828133740814183 L 7.533502373238083 1.9219911329792636 L 7.596096799727062 1.9219911329792636 Q 7.60510660353987 1.9219911329792636 7.6091373052456 1.928629935788701 Q 7.613168006951329 1.9352687385981382 7.613168006951329 1.9440414423106087 Q 7.613168006951329 1.9518657456217312 7.608544554994757 1.957911798180326 Q 7.603921103038185 1.9639578507389206 7.595622599526388 1.9639578507389206 L 7.4256218275847266 1.9639578507389206 Q 7.41732332407293 1.9639578507389206 7.412699872116358 1.957911798180326 Q 7.4080764201597855 1.9518657456217312 7.4080764201597855 1.9440414423106087 Q 7.4080764201597855 1.9352687385981382 7.412107121865515 1.928629935788701 Q 7.416137823571245 1.9219911329792636 7.425147627384052 1.9219911329792636 L 7.478020949759213 1.9219911329792636 L 7.478020949759213 1.5992978964205453 L 7.434868731497872 1.5992978964205453 Q 7.425858927685064 1.5992978964205453 7.421828225979334 1.5927776436612766 Q 7.417797524273604 1.586257390902008 7.417797524273604 1.5774846871895372 Q 7.417797524273604 1.5696603838784147 7.4224209762301765 1.56361433131982 Q 7.427044428186749 1.5575682787612255 7.435342931698545 1.5575682787612255 L 7.575706191098076 1.5575682787612255 Q 7.652763723707616 1.5575682787612255 7.712038748791877 1.5747580360356612 Q 7.771313773876138 1.591947793310097 7.771313773876138 1.6678198254179515 L 7.771313773876138 1.6678198254179515 M 8.11060401745845 1.8100798856201783 Q 8.11060401745845 1.818378389131975 8.106336215652384 1.8237131413895584 Q 8.102068413846316 1.829047893647142 8.094007010434856 1.829047893647142 Q 8.086656907324409 1.829047893647142 8.0817963552675 1.8243058916404011 Q 8.07693580321059 1.8195638896336601 8.075039002407893 1.8129250868242228 L 8.062946897290704 1.7688244681615326 L 7.983755463778131 1.7688244681615326 L 7.983755463778131 1.9222282330796008 L 8.193114852375741 1.9222282330796008 L 8.220618464014839 1.8439851999683758 Q 8.223937865419558 1.8366350968579275 8.229865367927983 1.831300344600344 Q 8.23579287043641 1.8259655923427605 8.245039774349554 1.8259655923427605 Q 8.252864077660677 1.8259655923427605 8.257606079667418 1.8307075943495013 Q 8.262348081674158 1.8354495963562423 8.262348081674158 1.8435109997677017 Q 8.262348081674158 1.8458820007710721 8.261992431523653 1.8482530017744425 Q 8.261636781373147 1.8506240027778131 8.260925481072137 1.8527579036808466 L 8.245988174750902 1.945464042912631 Q 8.243617173747532 1.9539996465247647 8.239349371941465 1.9589787486318426 Q 8.235081570135398 1.9639578507389206 8.226545966523265 1.9639578507389206 L 7.861411812004215 1.9639578507389206 Q 7.853113308492419 1.9639578507389206 7.8484898565358465 1.957911798180326 Q 7.843866404579274 1.9518657456217312 7.843866404579274 1.9440414423106087 Q 7.843866404579274 1.9352687385981382 7.847897106285004 1.9287484858388695 Q 7.851927807990734 1.9222282330796008 7.860937611803541 1.9222282330796008 L 7.928511140399599 1.9222282330796008 L 7.928511140399599 1.5992978964205453 L 7.88512182203792 1.5992978964205453 Q 7.876112018225112 1.5992978964205453 7.872199866569551 1.5927776436612766 Q 7.86828771491399 1.586257390902008 7.86828771491399 1.5774846871895372 Q 7.86828771491399 1.5696603838784147 7.872792616820393 1.56361433131982 Q 7.877297518726797 1.5575682787612255 7.885596022238594 1.5575682787612255 L 8.216824862409446 1.5575682787612255 Q 8.225360466021579 1.5575682787612255 8.229391167727309 1.562665930918472 Q 8.23342186943304 1.5677635830757184 8.236267070637084 1.576062086587515 L 8.25902868026944 1.6512228183943582 Q 8.259739980570451 1.6538309194980658 8.260095630720956 1.6562019205014362 Q 8.260451280871463 1.6585729215048066 8.260451280871463 1.6604697223075031 Q 8.260451280871463 1.6682940256186254 8.255590728814553 1.6731545776755348 Q 8.250730176757644 1.6780151297324444 8.243142973546858 1.6780151297324444 Q 8.234370269834388 1.6780151297324444 8.228087117175455 1.6726803774748609 Q 8.221803964516523 1.6673456252172774 8.218721663212142 1.6599955221068288 L 8.193114852375741 1.5992978964205453 L 7.983755463778131 1.5992978964205453 L 7.983755463778131 1.734682053712998 L 8.062946897290704 1.734682053712998 L 8.075039002407893 1.6905814350503077 Q 8.07693580321059 1.6839426322408704 8.0817963552675 1.6792006302341296 Q 8.086656907324409 1.6744586282273888 8.094007010434856 1.6744586282273888 Q 8.102068413846316 1.6744586282273888 8.106336215652384 1.679793380484972 Q 8.11060401745845 1.6851281327425558 8.11060401745845 1.6934266362543522 L 8.107047515953393 1.7508048605359172 L 8.11060401745845 1.8100798856201783" fill="#edb40b" fill-rule="nonzero"></path></g><g clip-path="url(#SvgjsClipPath1001)"><g clip-path="url(#b74bd42d2-7d2c-440d-8029-7360f679d82145421be0-50bf-4fef-a06e-9e7ecd8c52a1)"><path d=" M 6.282638344427916 -4.369717192324895 C 5.789386653118668 -5.012276004141813 5.0428510505803175 -5.380799933689173 4.234478664019002 -5.380799933689173 C 3.4229159543699152 -5.380799933689173 2.6745493837985834 -5.009890197310958 2.181297692489335 -4.363197836449885 C 2.111117789234494 -4.271192527194275 2.1288107766122404 -4.139715434960404 2.220816085867851 -4.069535531705563 C 2.312821395123462 -3.9993556284507212 2.4442984873573317 -4.017048615828469 2.5144783906121733 -4.10905392508408 C 2.8176700517099675 -4.506568181820312 3.23587979560687 -4.779493386494124 3.7054676121868266 -4.8968417922443 C 3.622200224013126 -4.7841093849063725 3.577357137946044 -4.6476059027902235 3.577549527337167 -4.507455923896909 C 3.577549527337167 -4.144591350087856 3.87155860633016 -3.8505267872150757 4.234367696259426 -3.850499045275182 C 4.59723227006848 -3.850582271094863 4.89129683294126 -4.1446190920277495 4.891352316821047 -4.507511407776697 C 4.8915347133971 -4.647634190472156 4.846691735058019 -4.784108169008786 4.763434231971402 -4.896814050304388 C 5.230802693359854 -4.779964999472317 5.64745888862271 -4.50898173059106 5.9502344206221 -4.114546829183023 C 6.021082646086887 -4.0240092114239685 6.151649205794601 -4.0074637400646695 6.24284133037865 -4.077467509212063 C 6.334033454962698 -4.147471278359458 6.351791611170888 -4.277878436999216 6.282638344427917 -4.369717192324893" fill="#0e35cb" transform="matrix(1,0,0,1,0,0)" fill-rule="nonzero"></path></g><g clip-path="url(#b74bd42d2-7d2c-440d-8029-7360f679d82145421be0-50bf-4fef-a06e-9e7ecd8c52a1)"><path d=" M 3.9672960409031774 -0.6671946682975491 C 3.471436607243925 -0.7310288719928577 3.025956536431557 -0.9567372949676631 2.6895577732810536 -1.3047321889937153 C 2.8241061817652975 -1.2896405736915657 2.9644803976272094 -1.315745739131498 3.0907339660832496 -1.3886515571720324 C 3.404966919258719 -1.5700838440765592 3.512633387986008 -1.971731649856947 3.3312565849612685 -2.2859368610925235 C 3.1497410722370613 -2.600169814267993 2.7480655245167798 -2.7078085410553885 2.433777087461522 -2.5264039960907554 C 2.3123315105492748 -2.456498245243355 2.2165580273626624 -2.3494241134516605 2.160574463388773 -2.2209652378615754 C 2.028106700396554 -2.6841169243862035 2.054433801355636 -3.180475712963542 2.2446325412665584 -3.639909979542421 C 2.2888885505562886 -3.7468230599730035 2.2380949585020247 -3.8693698202134716 2.1311818780714415 -3.9136258295032027 C 2.024268797640859 -3.9578818387929324 1.9017220374003907 -3.9070882467386685 1.85746602811066 -3.800175166308086 C 1.5476163014383884 -3.051725369917073 1.601740826170916 -2.2209652378615754 2.0059131484816266 -1.520925126584996 C 2.41169450330617 -0.8180830793791571 3.1070739686806146 -0.3554030058327209 3.91378183884831 -0.251564924810757 C 4.028118153274129 -0.23760744083425056 4.132282290670293 -0.31855606097936295 4.146991468333973 -0.43279810336259583 C 4.161700645997653 -0.5470401457458287 4.081438869356415 -0.6517344332369657 3.967296040903176 -0.6671946682975491" fill="#edb40b" transform="matrix(1,0,0,1,0,0)" fill-rule="nonzero"></path></g><g clip-path="url(#b74bd42d2-7d2c-440d-8029-7360f679d82145421be0-50bf-4fef-a06e-9e7ecd8c52a1)"><path d=" M 6.6083009768395735 -3.807748715899054 C 6.563177904828612 -3.9136818985864927 6.441031631063493 -3.9633578129742624 6.334781143655816 -3.9189870484143885 C 6.228530656248139 -3.874616283854515 6.177989850649075 -3.7528253333107164 6.221606076661867 -3.64626288377807 C 6.414246107283432 -3.184942165286421 6.441516434198898 -2.686308537637802 6.308327380769444 -2.2209652378615745 C 6.2523493867516695 -2.349452291446889 6.156551269008123 -2.456541943677772 6.035069272816907 -2.5264317380306487 C 5.720836319641438 -2.7078362829952813 5.3191607719211556 -2.6002807820275677 5.137728485016629 -2.2860755707919913 C 4.956379423931784 -1.9717871337367336 5.063990408779285 -1.5701115860164525 5.378223361954754 -1.3886238152321386 C 5.49948165745942 -1.3183887565000658 5.640104015756336 -1.2889882869564193 5.779344070877164 -1.304759930933609 C 5.444471114420811 -0.9584295533011762 5.0014600762589785 -0.7330540336050948 4.508485804348667 -0.6680824103741463 C 4.395098250193627 -0.6515319352098281 4.316036291110601 -0.546966964417062 4.331011837851394 -0.4333606764518221 C 4.345987384592187 -0.31975438848658033 4.449445246262668 -0.23924912561818168 4.563248393698748 -0.25264686046660945 C 5.366377553620163 -0.35851010310080955 6.058788631425986 -0.8207740475488423 6.462933211796803 -1.5208419007653147 C 6.868714566621345 -2.2236284640913655 6.921701671818233 -3.057190532076123 6.6083009768395735 -3.807748715899054" fill="#80caff" transform="matrix(1,0,0,1,0,0)" fill-rule="nonzero"></path></g></g></g><defs><clipPath id="SvgjsClipPath1001"><path d=" M 1.6585484103586632 -5.380799933689173 h 5.151886333579549 v 5.130799933689173 h -5.151886333579549 Z"></path></clipPath><clipPath id="b74bd42d2-7d2c-440d-8029-7360f679d82145421be0-50bf-4fef-a06e-9e7ecd8c52a1"><path d=" M 1.6308143791794703 -5.4085418735828314 L 6.838198432738322 -5.4085418735828314 L 6.838198432738322 -0.2221029846436915 L 1.6308143791794703 -0.2221029846436915 Z"></path></clipPath></defs></svg>